<?xml version="1.0" encoding="UTF-8"?>
<svg width="142px" height="46px" viewBox="0 0 142 46" version="1.1" xmlns="http://www.w3.org/2000/svg" xmlns:xlink="http://www.w3.org/1999/xlink">
    <!-- Generator: Sketch 47.1 (45422) - http://www.bohemiancoding.com/sketch -->
    <title>brand-full</title>
    <desc>Created with Sketch.</desc>
    <defs></defs>
    <g id="Page-1" stroke="none" stroke-width="1" fill="none" fill-rule="evenodd">
        <g id="DEVersity-website-comming-soon-1920px" transform="translate(-776.000000, -2366.000000)" fill-rule="nonzero" fill="#FFFFFF">
            <g id="brand-full" transform="translate(777.000000, 2366.000000)">
                <path d="M70.1613782,10.9459459 L70.44934,10.9459459 C71.3132257,11.1196911 71.6011875,11.6409266 71.6011875,12.3359073 L71.6011875,23.976834 L71.6011875,25.8880309 C71.6011875,27.4517375 71.0252638,29.1891892 70.0173972,30.9266409 C68.4336069,33.011583 66.7058356,33.8803089 64.8340834,33.8803089 L64.4021406,33.8803089 C62.5303884,33.8803089 60.8026171,32.8378378 59.0748459,30.7528958 C58.0669793,29.015444 57.6350365,27.2779923 57.6350365,25.5405405 C57.6350365,22.7606178 58.6429031,20.5019305 60.6586362,18.5907336 C61.9544647,17.5482625 63.2502931,17.027027 64.6901025,17.027027 C66.4178738,17.027027 67.8576831,17.5482625 69.0095307,18.7644788 L69.0095307,13.3783784 L69.0095307,12.3359073 C69.2974925,11.4671815 69.7294353,10.9459459 70.1613782,10.9459459 Z M60.3706743,25.3667954 L60.3706743,25.7142857 C60.3706743,27.972973 61.3785409,29.5366795 63.2502931,30.5791506 C63.6822359,30.7528958 64.2581597,30.9266409 64.5461216,30.9266409 L64.8340834,30.9266409 C66.5618547,30.9266409 67.8576831,29.7104247 68.8655497,27.4517375 C69.0095307,26.7567568 69.1535116,26.2355212 69.1535116,25.8880309 L69.1535116,25.5405405 C69.1535116,23.2818533 68.145645,21.7181467 66.2738928,20.6756757 C65.6979691,20.5019305 65.2660262,20.3281853 64.8340834,20.3281853 L64.5461216,20.3281853 C62.8183503,20.3281853 61.5225218,21.3706564 60.5146553,23.6293436 C60.3706743,24.3243243 60.3706743,24.8455598 60.3706743,25.3667954 Z M79.8081011,17.3745174 C81.5358723,17.3745174 83.2636436,18.2432432 84.703453,19.8069498 C86.1432624,21.5444015 86.7191861,23.4555985 86.7191861,25.7142857 C86.7191861,28.8416988 85.5673386,31.2741313 83.1196626,33.011583 C82.1117961,33.7065637 80.9599486,34.0540541 79.952082,34.0540541 L79.5201392,34.0540541 C77.648387,34.0540541 75.9206157,33.011583 74.3368254,30.9266409 C73.3289588,29.1891892 72.897016,27.4517375 72.897016,25.7142857 C72.897016,22.9343629 73.9048826,20.6756757 75.9206157,18.9382239 C77.2164442,17.8957529 78.5122726,17.3745174 79.8081011,17.3745174 Z M75.6326538,25.5405405 L75.6326538,25.8880309 C75.6326538,27.7992278 76.3525585,29.3629344 77.9363489,30.4054054 C78.5122726,30.7528958 79.0881964,30.9266409 79.6641201,30.9266409 L79.952082,30.9266409 C81.5358723,30.9266409 82.8317008,29.8841699 83.6955864,27.7992278 C83.8395673,27.1042471 83.9835483,26.5830116 83.9835483,25.8880309 L83.9835483,25.5405405 C83.9835483,23.976834 83.4076245,22.5868726 82.1117961,21.5444015 C81.3918914,21.023166 80.5280057,20.6756757 79.6641201,20.6756757 C77.7923679,20.6756757 76.4965395,21.8918919 75.6326538,24.1505792 C75.6326538,24.6718147 75.6326538,25.019305 75.6326538,25.5405405 Z M94.3501759,17.2007722 C96.0779471,17.2007722 97.8057184,18.0694981 99.2455278,19.6332046 C99.3895087,19.980695 99.5334897,20.3281853 99.5334897,20.5019305 L99.5334897,20.6756757 C99.3895087,21.7181467 98.9575659,22.2393822 98.2376612,22.2393822 L98.2376612,22.2393822 C97.9496993,22.2393822 97.3737756,21.8918919 96.5098899,21.023166 C95.9339662,20.6756757 95.2140615,20.5019305 94.6381377,20.5019305 L94.3501759,20.5019305 C92.6224046,20.5019305 91.3265762,21.5444015 90.4626905,23.8030888 C90.3187096,24.4980695 90.1747286,25.1930502 90.1747286,25.7142857 C90.1747286,27.7992278 91.0386143,29.3629344 92.9103665,30.4054054 C93.4862902,30.5791506 94.062214,30.7528958 94.6381377,30.7528958 C95.6460043,30.7528958 96.6538709,30.2316602 97.6617375,29.1891892 L98.2376612,29.015444 L98.3816421,29.015444 C99.1015468,29.015444 99.5334897,29.5366795 99.6774706,30.5791506 L99.6774706,30.7528958 C99.6774706,31.7953668 98.5256231,32.8378378 96.365909,33.8803089 C95.6460043,34.0540541 95.0700806,34.0540541 94.7821187,34.0540541 L94.3501759,34.0540541 C92.4784237,34.0540541 90.7506524,33.011583 89.1668621,30.9266409 C88.1589955,29.1891892 87.7270527,27.4517375 87.7270527,25.7142857 C87.7270527,22.9343629 88.7349193,20.6756757 90.7506524,18.9382239 C91.758519,17.7220077 93.0543474,17.2007722 94.3501759,17.2007722 Z M105.868651,25.5405405 L104.284861,26.7567568 L104.284861,32.4903475 C104.284861,33.3590734 103.852918,33.8803089 102.989032,34.0540541 L102.845051,34.0540541 C102.125147,34.0540541 101.693204,33.5328185 101.549223,32.6640927 L101.549223,12.5096525 C101.693204,11.4671815 102.125147,10.9459459 102.70107,10.9459459 L102.989032,10.9459459 C103.852918,11.1196911 104.284861,11.6409266 104.284861,12.3359073 L104.284861,22.9343629 C108.460308,19.6332046 110.907984,17.7220077 111.771869,17.027027 L112.059831,17.027027 C112.779736,17.027027 113.211679,17.5482625 113.35566,18.7644788 C113.35566,19.4594595 112.779736,20.1544402 111.627889,20.8494208 C109.756136,22.4131274 108.604289,23.4555985 108.028365,23.8030888 L113.211679,31.7953668 L113.35566,32.3166023 L113.35566,32.4903475 C113.211679,33.5328185 112.779736,34.0540541 112.059831,34.0540541 L112.059831,34.0540541 C111.483908,34.0540541 110.907984,33.3590734 110.044098,31.969112 L105.868651,25.5405405 Z M121.274611,17.3745174 C124.010249,17.3745174 126.025982,18.9382239 127.465792,21.8918919 C128.041716,23.1081081 128.185696,24.3243243 128.185696,25.7142857 L128.185696,26.0617761 C128.041716,27.1042471 127.609773,27.6254826 126.889868,27.6254826 L117.243145,27.6254826 C117.531107,28.6679537 118.251012,29.5366795 119.258878,30.2316602 C119.978783,30.5791506 120.554707,30.7528958 121.13063,30.7528958 C121.850535,30.7528958 122.57044,30.4054054 123.578306,29.8841699 L124.010249,29.8841699 C124.874135,30.0579151 125.162097,30.5791506 125.162097,31.4478764 L125.162097,31.6216216 C125.162097,32.8378378 123.866268,33.7065637 121.418592,34.0540541 L121.13063,34.0540541 C118.682955,34.0540541 116.667221,32.6640927 115.083431,29.8841699 C114.507507,28.4942085 114.219545,27.1042471 114.219545,25.7142857 C114.219545,22.5868726 115.371393,20.1544402 117.819069,18.4169884 C119.114897,17.7220077 120.266745,17.3745174 121.274611,17.3745174 Z M117.243145,24.4980695 L125.59404,24.4980695 C125.59404,24.1505792 125.306078,23.2818533 124.586173,22.2393822 C123.578306,21.1969112 122.714421,20.6756757 121.706554,20.6756757 L121.13063,20.6756757 C119.690821,20.6756757 118.538974,21.5444015 117.675088,23.1081081 C117.387126,23.8030888 117.243145,24.1505792 117.243145,24.4980695 Z M131.929201,17.2007722 C132.793086,17.3745174 133.225029,17.8957529 133.225029,18.5907336 L133.225029,18.7644788 C134.232896,17.5482625 135.672705,17.027027 137.400477,17.027027 C138.264362,17.027027 139.272229,17.3745174 140.424076,17.8957529 C140.856019,18.4169884 141,18.7644788 141,19.2857143 L141,19.4594595 C140.856019,20.5019305 140.424076,21.023166 139.704172,21.023166 L139.41621,21.023166 C138.552324,20.6756757 137.832419,20.5019305 137.544457,20.5019305 L137.256496,20.5019305 C135.528724,20.5019305 134.232896,21.5444015 133.512991,23.8030888 C133.36901,24.3243243 133.225029,25.019305 133.225029,25.7142857 L133.225029,32.4903475 C133.225029,33.3590734 132.793086,33.8803089 131.929201,34.0540541 L131.78522,34.0540541 C131.065315,34.0540541 130.633372,33.5328185 130.489391,32.4903475 L130.489391,18.9382239 C130.633372,17.7220077 131.065315,17.2007722 131.929201,17.2007722 Z" id="docker"></path>
                <path d="M46.2680247,17.2007722 C46.1230202,14.5945946 44.9629844,12.3359073 42.9329218,10.4247104 L42.2078995,9.72972973 L41.6278816,10.5984556 C40.6128503,12.5096525 40.1778369,14.9420849 40.3228414,17.027027 C40.4678459,18.4169884 40.9028593,19.980695 41.6278816,21.023166 C41.0478637,21.5444015 39.1628056,22.5868726 36.6977296,22.5868726 L0.156603112,22.5868726 C-0.568419239,27.2779923 0.591616523,45 17.5571395,45 C30.1725285,45 40.4678459,38.2239382 45.2529934,23.976834 C46.8480425,23.976834 50.9081677,24.3243243 52.9382303,19.6332046 C52.9382303,19.6332046 53.5182482,18.4169884 53.5182482,18.4169884 L52.7932258,17.7220077 C51.4881856,16.8532819 48.4430917,16.5057915 46.2680247,17.2007722 Z" id="Shape" stroke="#FFFFFF" stroke-width="0.7"></path>
                <rect id="Rectangle-3" x="23.6715328" y="0" width="6.17518248" height="7.2972973"></rect>
                <rect id="Rectangle-3_1_" x="23.6715328" y="7.2972973" width="6.17518248" height="7.2972973"></rect>
                <rect id="Rectangle-3_2_" x="17.4963504" y="7.2972973" width="6.17518248" height="7.2972973"></rect>
                <rect id="Rectangle-3_3_" x="10.2919708" y="7.2972973" width="6.17518248" height="7.2972973"></rect>
                <rect id="Rectangle-3_4_" x="4.11678832" y="14.5945946" width="6.17518248" height="7.2972973"></rect>
                <rect id="Rectangle-3_5_" x="10.2919708" y="14.5945946" width="6.17518248" height="7.2972973"></rect>
                <rect id="Rectangle-3_6_" x="17.4963504" y="14.5945946" width="6.17518248" height="7.2972973"></rect>
                <rect id="Rectangle-3_7_" x="23.6715328" y="14.5945946" width="6.17518248" height="7.2972973"></rect>
                <rect id="Rectangle-3_8_" x="30.8759124" y="14.5945946" width="6.17518248" height="7.2972973"></rect>
            </g>
        </g>
    </g>
</svg>